<svg width="24" height="24" viewBox="0 0 24 24" fill="none" xmlns="http://www.w3.org/2000/svg">
<path d="M12.3516 0.0328184C10.7578 0.168756 9.29064 0.581256 7.85626 1.29844C6.8297 1.81407 5.8547 2.50782 4.98751 3.34219C3.44532 4.82344 2.33439 6.64219 1.75782 8.62969C1.42501 9.77344 1.29376 10.7297 1.29376 12C1.29376 13.2703 1.42501 14.2266 1.75782 15.3703C2.69532 18.6 5.02501 21.3375 8.08595 22.8094C8.89689 23.1984 9.48751 23.4141 10.3359 23.625C11.2453 23.8547 11.9391 23.9531 12.8672 23.9859C16.1297 24.1031 19.3406 22.8609 21.6609 20.5734C22.3031 19.9453 22.6781 19.4859 22.7109 19.2938C22.7531 19.0781 22.6313 18.8344 22.4297 18.7219C22.275 18.6375 22.2469 18.6375 21.6234 18.7172C19.6969 18.9609 17.9156 18.6891 16.2938 17.9156C13.1672 16.4156 11.1938 13.5422 10.9172 10.0875C10.7297 7.79532 11.4984 5.33438 12.9703 3.51563C13.5563 2.78907 14.5266 1.93126 15.3047 1.45313C15.7359 1.18594 15.8859 1.04532 15.9188 0.867193C15.9563 0.665631 15.8344 0.398443 15.6609 0.290631C15.3328 0.0890684 13.4156 -0.0562441 12.3516 0.0328184Z" fill="#141414"/>
</svg>
